<mxfile host="app.diagrams.net" modified="2023-12-19T19:38:30.056Z" agent="Mozilla/5.0 (Windows NT 10.0; Win64; x64) AppleWebKit/537.36 (KHTML, like Gecko) Chrome/120.0.0.0 Safari/537.36" etag="0jhlQlNgtjIX1UbUo4db" version="22.1.11" type="device">
  <diagram name="Page-1" id="j3_6ewjCYm0xxaWQDp7q">
    <mxGraphModel dx="1730" dy="468" grid="1" gridSize="10" guides="1" tooltips="1" connect="1" arrows="1" fold="1" page="1" pageScale="1" pageWidth="850" pageHeight="1100" math="0" shadow="0">
      <root>
        <mxCell id="0" />
        <mxCell id="1" parent="0" />
        <mxCell id="UUtU30Dp9FawX1knIO3y-27" value="" style="rounded=0;whiteSpace=wrap;html=1;fillColor=#f5f5f5;fontColor=#333333;strokeColor=#666666;fontFamily=Georgia;" vertex="1" parent="1">
          <mxGeometry x="-10" y="320" width="900" height="490" as="geometry" />
        </mxCell>
        <mxCell id="UUtU30Dp9FawX1knIO3y-4" value="Crop Recommendation Dataset" style="rounded=1;whiteSpace=wrap;html=1;fontFamily=Georgia;" vertex="1" parent="1">
          <mxGeometry x="40" y="503" width="120" height="60" as="geometry" />
        </mxCell>
        <mxCell id="UUtU30Dp9FawX1knIO3y-10" style="edgeStyle=orthogonalEdgeStyle;rounded=0;orthogonalLoop=1;jettySize=auto;html=1;entryX=0;entryY=0.5;entryDx=0;entryDy=0;fontFamily=Georgia;" edge="1" parent="1" source="UUtU30Dp9FawX1knIO3y-5" target="UUtU30Dp9FawX1knIO3y-9">
          <mxGeometry relative="1" as="geometry">
            <Array as="points">
              <mxPoint x="300" y="440" />
            </Array>
          </mxGeometry>
        </mxCell>
        <mxCell id="UUtU30Dp9FawX1knIO3y-11" style="edgeStyle=orthogonalEdgeStyle;rounded=0;orthogonalLoop=1;jettySize=auto;html=1;entryX=0;entryY=0.5;entryDx=0;entryDy=0;exitX=0.5;exitY=1;exitDx=0;exitDy=0;fontFamily=Georgia;" edge="1" parent="1" source="UUtU30Dp9FawX1knIO3y-5" target="UUtU30Dp9FawX1knIO3y-8">
          <mxGeometry relative="1" as="geometry">
            <Array as="points">
              <mxPoint x="300" y="630" />
            </Array>
          </mxGeometry>
        </mxCell>
        <mxCell id="UUtU30Dp9FawX1knIO3y-5" value="Split Data" style="rounded=1;whiteSpace=wrap;html=1;fontFamily=Georgia;" vertex="1" parent="1">
          <mxGeometry x="240" y="503" width="120" height="60" as="geometry" />
        </mxCell>
        <mxCell id="UUtU30Dp9FawX1knIO3y-6" style="edgeStyle=orthogonalEdgeStyle;rounded=0;orthogonalLoop=1;jettySize=auto;html=1;entryX=0;entryY=0.5;entryDx=0;entryDy=0;fontFamily=Georgia;" edge="1" parent="1" source="UUtU30Dp9FawX1knIO3y-4" target="UUtU30Dp9FawX1knIO3y-5">
          <mxGeometry relative="1" as="geometry">
            <mxPoint x="250" y="540" as="targetPoint" />
          </mxGeometry>
        </mxCell>
        <mxCell id="UUtU30Dp9FawX1knIO3y-16" style="edgeStyle=orthogonalEdgeStyle;rounded=0;orthogonalLoop=1;jettySize=auto;html=1;entryX=0.5;entryY=0;entryDx=0;entryDy=0;fontFamily=Georgia;" edge="1" parent="1" source="UUtU30Dp9FawX1knIO3y-7" target="UUtU30Dp9FawX1knIO3y-17">
          <mxGeometry relative="1" as="geometry">
            <mxPoint x="735" y="730" as="targetPoint" />
          </mxGeometry>
        </mxCell>
        <mxCell id="UUtU30Dp9FawX1knIO3y-7" value="" style="rounded=1;whiteSpace=wrap;html=1;fontFamily=Georgia;" vertex="1" parent="1">
          <mxGeometry x="630" y="370" width="210" height="310" as="geometry" />
        </mxCell>
        <mxCell id="UUtU30Dp9FawX1knIO3y-22" style="edgeStyle=orthogonalEdgeStyle;rounded=0;orthogonalLoop=1;jettySize=auto;html=1;exitX=1;exitY=0.5;exitDx=0;exitDy=0;entryX=0.5;entryY=0;entryDx=0;entryDy=0;fontFamily=Georgia;" edge="1" parent="1" source="UUtU30Dp9FawX1knIO3y-8" target="UUtU30Dp9FawX1knIO3y-18">
          <mxGeometry relative="1" as="geometry" />
        </mxCell>
        <mxCell id="UUtU30Dp9FawX1knIO3y-8" value="Test Data" style="rounded=1;whiteSpace=wrap;html=1;fontFamily=Georgia;" vertex="1" parent="1">
          <mxGeometry x="400" y="600" width="120" height="60" as="geometry" />
        </mxCell>
        <mxCell id="UUtU30Dp9FawX1knIO3y-9" value="Train Data&amp;nbsp;" style="rounded=1;whiteSpace=wrap;html=1;fontFamily=Georgia;" vertex="1" parent="1">
          <mxGeometry x="400" y="410" width="120" height="60" as="geometry" />
        </mxCell>
        <mxCell id="UUtU30Dp9FawX1knIO3y-12" value="&lt;b style=&quot;border-color: var(--border-color);&quot;&gt;Crop Price Estimation - Classification&lt;/b&gt;" style="rounded=1;whiteSpace=wrap;html=1;fontFamily=Georgia;" vertex="1" parent="1">
          <mxGeometry x="655" y="385" width="160" height="50" as="geometry" />
        </mxCell>
        <mxCell id="UUtU30Dp9FawX1knIO3y-13" value="&lt;b&gt;K-Nearest Neighbours&lt;/b&gt;" style="rounded=1;whiteSpace=wrap;html=1;fontFamily=Georgia;" vertex="1" parent="1">
          <mxGeometry x="655" y="450" width="160" height="50" as="geometry" />
        </mxCell>
        <mxCell id="UUtU30Dp9FawX1knIO3y-14" value="&lt;b style=&quot;border-color: var(--border-color);&quot;&gt;Support Vector Machine&lt;/b&gt;" style="rounded=1;whiteSpace=wrap;html=1;fontFamily=Georgia;" vertex="1" parent="1">
          <mxGeometry x="655" y="520" width="160" height="50" as="geometry" />
        </mxCell>
        <mxCell id="UUtU30Dp9FawX1knIO3y-15" value="&lt;b style=&quot;border-color: var(--border-color);&quot;&gt;Decision tree&lt;/b&gt;" style="rounded=1;whiteSpace=wrap;html=1;fontFamily=Georgia;" vertex="1" parent="1">
          <mxGeometry x="655" y="590" width="160" height="50" as="geometry" />
        </mxCell>
        <mxCell id="UUtU30Dp9FawX1knIO3y-19" value="" style="edgeStyle=orthogonalEdgeStyle;rounded=0;orthogonalLoop=1;jettySize=auto;html=1;entryX=1;entryY=0.5;entryDx=0;entryDy=0;fontFamily=Georgia;" edge="1" parent="1" source="UUtU30Dp9FawX1knIO3y-17" target="UUtU30Dp9FawX1knIO3y-18">
          <mxGeometry relative="1" as="geometry">
            <mxPoint x="595" y="760" as="targetPoint" />
          </mxGeometry>
        </mxCell>
        <mxCell id="UUtU30Dp9FawX1knIO3y-17" value="Stacking Regressor" style="rounded=1;whiteSpace=wrap;html=1;fontFamily=Georgia;" vertex="1" parent="1">
          <mxGeometry x="675" y="719" width="120" height="60" as="geometry" />
        </mxCell>
        <mxCell id="UUtU30Dp9FawX1knIO3y-21" value="" style="edgeStyle=orthogonalEdgeStyle;rounded=0;orthogonalLoop=1;jettySize=auto;html=1;fontFamily=Georgia;" edge="1" parent="1" source="UUtU30Dp9FawX1knIO3y-18" target="UUtU30Dp9FawX1knIO3y-20">
          <mxGeometry relative="1" as="geometry" />
        </mxCell>
        <mxCell id="UUtU30Dp9FawX1knIO3y-18" value="Evaluations Metrics" style="rounded=1;whiteSpace=wrap;html=1;fontFamily=Georgia;" vertex="1" parent="1">
          <mxGeometry x="480" y="719" width="120" height="60" as="geometry" />
        </mxCell>
        <mxCell id="UUtU30Dp9FawX1knIO3y-20" value="Price Prediction of the crop&amp;nbsp;" style="rounded=1;whiteSpace=wrap;html=1;fontFamily=Georgia;" vertex="1" parent="1">
          <mxGeometry x="280" y="719" width="120" height="60" as="geometry" />
        </mxCell>
        <mxCell id="UUtU30Dp9FawX1knIO3y-23" style="edgeStyle=orthogonalEdgeStyle;rounded=0;orthogonalLoop=1;jettySize=auto;html=1;exitX=1;exitY=0.5;exitDx=0;exitDy=0;entryX=-0.014;entryY=0.223;entryDx=0;entryDy=0;entryPerimeter=0;fontFamily=Georgia;" edge="1" parent="1" source="UUtU30Dp9FawX1knIO3y-9" target="UUtU30Dp9FawX1knIO3y-7">
          <mxGeometry relative="1" as="geometry" />
        </mxCell>
        <mxCell id="UUtU30Dp9FawX1knIO3y-24" value="80%" style="rounded=0;whiteSpace=wrap;html=1;fontFamily=Georgia;" vertex="1" parent="1">
          <mxGeometry x="220" y="435" width="60" height="30" as="geometry" />
        </mxCell>
        <mxCell id="UUtU30Dp9FawX1knIO3y-25" value="20%" style="rounded=0;whiteSpace=wrap;html=1;fontFamily=Georgia;" vertex="1" parent="1">
          <mxGeometry x="220" y="605" width="60" height="30" as="geometry" />
        </mxCell>
      </root>
    </mxGraphModel>
  </diagram>
</mxfile>
